<?xml version="1.0" encoding="UTF-8"?>
<svg id="Layer_1" xmlns="http://www.w3.org/2000/svg" xmlns:xlink="http://www.w3.org/1999/xlink" viewBox="0 0 612 612">
  <defs>
    <style>
      .cls-1 {
        fill: #fff;
      }

      .cls-2, .cls-3, .cls-4 {
        fill: none;
      }

      .cls-3 {
        stroke: #fff;
        stroke-width: 7.92px;
      }

      .cls-3, .cls-4 {
        stroke-miterlimit: 10;
      }

      .cls-5 {
        fill: #263846;
      }

      .cls-6 {
        clip-path: url(#clippath-1);
      }

      .cls-7 {
        fill: #95c83d;
      }

      .cls-8 {
        fill: #004d71;
      }

      .cls-9 {
        fill: #fdde00;
      }

      .cls-4 {
        stroke: #fdde00;
        stroke-linecap: round;
        stroke-width: 7px;
      }

      .cls-10 {
        clip-path: url(#clippath);
      }

      .cls-11 {
        fill: #678d3d;
      }
    </style>
    <clipPath id="clippath">
      <path class="cls-2" d="M482.28,185.86c0-95.47-79.06-172.85-176.54-172.72-97.78.14-176.26,77.35-176.03,173.15.1,39.87,13.99,76.57,37.24,105.76,27.88,34.99,53.4,93.52,47.42,128.64-.74,4.33-1.12,8.77-1.11,13.28.02,34.17,186.86,36.05,186.86-.04,0-4.95-.46-9.8-1.34-14.52-6.51-34.79,19.44-93.28,46.91-128.19,22.94-29.15,36.58-65.69,36.58-105.35Z"/>
    </clipPath>
    <clipPath id="clippath-1">
      <path class="cls-2" d="M305.74,13.14c-39.77.06-76.35,12.86-105.74,34.49,124.74,27.02,218.06,136,218.06,266.35,0,8.15-.39,16.21-1.1,24.18,8.26-17.31,18.39-33.8,28.73-46.95,22.94-29.15,36.58-65.69,36.58-105.35,0-95.47-79.06-172.85-176.54-172.72Z"/>
    </clipPath>
  </defs>
  <g class="cls-10">
    <path class="cls-5" d="M482.28,184.88c0-95.47-79.06-172.85-176.54-172.72s-176.26,77.35-176.03,173.15c.1,39.87,13.99,76.57,37.24,105.76,27.88,34.99,53.4,93.52,47.42,128.64-.74,4.33-1.12,8.77-1.11,13.28.02,34.17,186.86,36.05,186.86-.04,0-4.95-.46-9.8-1.34-14.52-6.51-34.79,19.44-93.28,46.91-128.19,22.94-29.15,36.58-65.69,36.58-105.35Z"/>
    <ellipse class="cls-1" cx="402.73" cy="75.83" rx="15.38" ry="15.06"/>
    <g>
      <ellipse class="cls-8" cx="139.64" cy="313.98" rx="307.85" ry="301.62"/>
      <ellipse class="cls-7" cx="139.64" cy="313.98" rx="278.43" ry="272.8"/>
    </g>
    <g>
      <rect class="cls-11" x="94.92" y="94.54" width="141.81" height="54.7" rx="27.35" ry="27.35"/>
      <rect class="cls-11" x="262.98" y="215.31" width="191.26" height="54.7" rx="27.35" ry="27.35"/>
      <rect class="cls-1" x="71.28" y="52.61" width="141.81" height="54.7" rx="27.35" ry="27.35"/>
      <rect class="cls-11" x="256.96" y="260.06" width="123" height="34.77" rx="17.39" ry="17.39"/>
      <rect class="cls-11" x="127.78" y="272.1" width="110.66" height="41.3" rx="20.65" ry="20.65"/>
      <rect class="cls-11" x="151.59" y="304.73" width="110.66" height="41.3" rx="20.65" ry="20.65"/>
      <rect class="cls-11" x="141.77" y="125.35" width="180.32" height="54.7" rx="27.35" ry="27.35"/>
      <rect class="cls-11" x="242.07" y="71.68" width="134.3" height="38.88" rx="19.44" ry="19.44"/>
      <rect class="cls-1" x="215.92" y="156.74" width="147.3" height="35.66" rx="17.83" ry="17.83"/>
      <rect class="cls-1" x="247.53" y="183.11" width="101.08" height="24.47" rx="12.23" ry="12.23"/>
      <rect class="cls-1" x="169.07" y="243.55" width="135.01" height="45.28" rx="22.64" ry="22.64"/>
      <rect class="cls-11" x="348.61" y="95.19" width="90.97" height="27.6" rx="13.8" ry="13.8"/>
    </g>
    <g class="cls-6">
      <g>
        <rect class="cls-11" x="94.92" y="94.54" width="141.81" height="54.7" rx="27.35" ry="27.35"/>
        <rect class="cls-9" x="262.98" y="215.31" width="191.26" height="54.7" rx="27.35" ry="27.35"/>
        <rect class="cls-1" x="71.28" y="52.61" width="141.81" height="54.7" rx="27.35" ry="27.35"/>
        <rect class="cls-11" x="256.96" y="260.06" width="123" height="34.77" rx="17.39" ry="17.39"/>
        <rect class="cls-11" x="127.78" y="272.1" width="110.66" height="41.3" rx="20.65" ry="20.65"/>
        <rect class="cls-11" x="151.59" y="304.73" width="110.66" height="41.3" rx="20.65" ry="20.65"/>
        <rect class="cls-11" x="141.77" y="125.35" width="180.32" height="54.7" rx="27.35" ry="27.35"/>
        <rect class="cls-9" x="242.07" y="71.68" width="134.3" height="38.88" rx="19.44" ry="19.44"/>
        <rect class="cls-1" x="215.92" y="156.74" width="147.3" height="35.66" rx="17.83" ry="17.83"/>
        <rect class="cls-1" x="422.95" y="156.74" width="147.3" height="35.66" rx="17.83" ry="17.83"/>
        <rect class="cls-1" x="453.85" y="126.46" width="147.3" height="35.66" rx="17.83" ry="17.83"/>
        <rect class="cls-1" x="247.53" y="183.11" width="101.08" height="24.47" rx="12.23" ry="12.23"/>
        <rect class="cls-1" x="169.07" y="243.55" width="135.01" height="45.28" rx="22.64" ry="22.64"/>
        <rect class="cls-9" x="348.61" y="95.19" width="90.97" height="27.6" rx="13.8" ry="13.8"/>
      </g>
    </g>
    <ellipse class="cls-3" cx="139.64" cy="313.98" rx="278.43" ry="272.8"/>
    <path class="cls-11" d="M555.29,441.33c0,19.27-31.24,35.04-69.43,35.04H126.14c-38.19,0-69.43-15.77-69.43-35.04s31.24-35.04,69.43-35.04h359.72c38.19,0,69.43,15.77,69.43,35.04Z"/>
  </g>
  <path class="cls-11" d="M394.67,482.78c0,6.85-11.11,12.46-24.69,12.46h-127.94c-13.58,0-24.69-5.61-24.69-12.46s11.11-12.46,24.69-12.46h127.94c13.58,0,24.69,5.61,24.69,12.46Z"/>
  <path class="cls-11" d="M401.47,514.67c0,6.31-11.11,11.48-24.69,11.48h-141.54c-13.58,0-24.69-5.17-24.69-11.48s11.11-11.48,24.69-11.48h141.54c13.58,0,24.69,5.17,24.69,11.48Z"/>
  <path class="cls-7" d="M387.68,545.57c0,6.31-11.11,11.48-24.69,11.48h-113.97c-13.58,0-24.69-5.17-24.69-11.48s11.11-11.48,24.69-11.48h113.97c13.58,0,24.69,5.17,24.69,11.48Z"/>
  <path class="cls-9" d="M267.5,581.93c-7.33-9.31-2.22-16.93,11.36-16.93h53.88c13.58,0,19.01,7.62,12.06,16.93s-23.74,16.93-37.33,16.93h-1.96c-13.58,0-30.69-7.62-38.03-16.93Z"/>
  <path class="cls-4" d="M305.76,22.49c-39.62.06-75.87,13.56-104.28,36.12-37.55,29.82-61.42,75.44-61.29,126.74.09,37.51,13.16,72.03,35.03,99.48"/>
</svg>